<?xml version="1.0" encoding="UTF-8"?>
<!DOCTYPE svg PUBLIC "-//W3C//DTD SVG 1.1//EN" "http://www.w3.org/Graphics/SVG/1.1/DTD/svg11.dtd">
<!-- Creator: CorelDRAW (Версия для OEM) -->
<svg xmlns="http://www.w3.org/2000/svg" xml:space="preserve" width="100mm" height="100mm" version="1.1" style="shape-rendering:geometricPrecision; text-rendering:geometricPrecision; image-rendering:optimizeQuality; fill-rule:evenodd; clip-rule:evenodd"
viewBox="0 0 10000 10000"
 xmlns:xlink="http://www.w3.org/1999/xlink"
 xmlns:xodm="http://www.corel.com/coreldraw/odm/2003">
 <defs>
  <style type="text/css">
   <![CDATA[
    .fil1 {fill:black}
    .fil0 {fill:white}
   ]]>
  </style>
 </defs>
 <g id="Слой_x0020_1">
  <metadata id="CorelCorpID_0Corel-Layer"/>
  <rect class="fil0" x="-3.8" y="3.8" width="10000" height="10000"/>
  <g id="_2019595114304">
   <path class="fil1" d="M4996.2 3406.05c-882.41,0 -1597.75,715.34 -1597.75,1597.75 0,882.41 715.34,1597.75 1597.75,1597.75 882.41,0 1597.75,-715.34 1597.75,-1597.75 0,-882.41 -715.34,-1597.75 -1597.75,-1597.75zm327.01 695.92c368.66,133.7 632.05,487 632.05,901.83 0,414.83 -263.39,768.13 -632.05,901.83l0 -1803.66zm-654.02 1803.66c-368.66,-133.7 -632.05,-487 -632.05,-901.83 0,-414.83 263.39,-768.13 632.05,-901.83l0 1803.66z"/>
   <path class="fil1" d="M3242.71 3250.31l-425.83 0c-16.26,0 -30.24,-5.79 -41.73,-17.28l-952.6 -952.6c-11.49,-11.49 -17.28,-25.47 -17.28,-41.72l0 -425.84 425.84 0c16.25,0 30.23,5.79 41.72,17.28l952.6 952.6c11.49,11.49 17.28,25.47 17.28,41.73l0 425.83z"/>
   <path class="fil1" d="M6749.69 3250.31l425.83 0c16.26,0 30.24,-5.79 41.73,-17.28l952.6 -952.6c11.49,-11.49 17.28,-25.47 17.28,-41.72l0 -425.84 -425.84 0c-16.25,0 -30.23,5.79 -41.72,17.28l-952.6 952.6c-11.49,11.49 -17.28,25.47 -17.28,41.73l0 425.83z"/>
   <path class="fil1" d="M3242.71 6757.29l-425.83 0c-16.26,0 -30.24,5.79 -41.73,17.28l-952.6 952.6c-11.49,11.49 -17.28,25.47 -17.28,41.72l0 425.84 425.84 0c16.25,0 30.23,-5.79 41.72,-17.28l952.6 -952.6c11.49,-11.49 17.28,-25.47 17.28,-41.73l0 -425.83z"/>
   <path class="fil1" d="M6749.69 6757.29l425.83 0c16.26,0 30.24,5.79 41.73,17.28l952.6 952.6c11.49,11.49 17.28,25.47 17.28,41.72l0 425.84 -425.84 0c-16.25,0 -30.23,-5.79 -41.72,-17.28l-952.6 -952.6c-11.49,-11.49 -17.28,-25.47 -17.28,-41.73l0 -425.83z"/>
  </g>
 </g>
</svg>
